<?xml version="1.0" encoding="UTF-8" standalone="no"?>
<!-- Created with Inkscape (http://www.inkscape.org/) -->

<svg
   xmlns:dc="http://purl.org/dc/elements/1.1/"
   xmlns:cc="http://creativecommons.org/ns#"
   xmlns:rdf="http://www.w3.org/1999/02/22-rdf-syntax-ns#"
   xmlns:svg="http://www.w3.org/2000/svg"
   xmlns="http://www.w3.org/2000/svg"
   xmlns:sodipodi="http://sodipodi.sourceforge.net/DTD/sodipodi-0.dtd"
   xmlns:inkscape="http://www.inkscape.org/namespaces/inkscape"
   width="744.09448819"
   height="1052.3622047"
   id="svg2"
   version="1.1"
   inkscape:version="0.48.2 r9819"
   sodipodi:docname="New document 1">
  <defs
     id="defs4" />
  <sodipodi:namedview
     id="base"
     pagecolor="#ffffff"
     bordercolor="#666666"
     borderopacity="1.0"
     inkscape:pageopacity="0.0"
     inkscape:pageshadow="2"
     inkscape:zoom="0.98994949"
     inkscape:cx="433.65462"
     inkscape:cy="507.09854"
     inkscape:document-units="px"
     inkscape:current-layer="layer1"
     showgrid="false"
     inkscape:window-width="1366"
     inkscape:window-height="706"
     inkscape:window-x="-8"
     inkscape:window-y="-8"
     inkscape:window-maximized="1" />
  <metadata
     id="metadata7">
    <rdf:RDF>
      <cc:Work
         rdf:about="">
        <dc:format>image/svg+xml</dc:format>
        <dc:type
           rdf:resource="http://purl.org/dc/dcmitype/StillImage" />
        <dc:title></dc:title>
      </cc:Work>
    </rdf:RDF>
  </metadata>
  <g
     inkscape:label="Layer 1"
     inkscape:groupmode="layer"
     id="layer1">
    <path
       style="fill:none;stroke:#0000ff;stroke-width:0.03543306;stroke-miterlimit:4;stroke-opacity:1;stroke-dasharray:none"
       d="m 249.61113,516.86116 c 0,-2.90097 2.35169,-5.25267 5.25265,-5.25267 2.90096,0 5.25267,2.3517 5.25267,5.25267 0,2.90099 -2.35169,5.25265 -5.25267,5.25265 -2.90096,0 -5.25265,-2.35166 -5.25265,-5.25265 z"
       id="path3848"
       inkscape:connector-curvature="0" />
    <path
       style="fill:none;stroke:#0000ff;stroke-width:0.03543306;stroke-miterlimit:4;stroke-opacity:1;stroke-dasharray:none"
       d="m 249.61113,728.29575 c 0,-2.90098 2.35169,-5.25266 5.25265,-5.25266 2.90097,0 5.25267,2.35168 5.25267,5.25266 0,2.90096 -2.35169,5.25265 -5.25267,5.25265 -2.90096,0 -5.25265,-2.35169 -5.25265,-5.25265 z"
       id="path3846"
       inkscape:connector-curvature="0" />
    <path
       inkscape:connector-curvature="0"
       style="fill:none;stroke:#0000ff;stroke-width:0.03543306;stroke-miterlimit:4;stroke-opacity:1;stroke-dasharray:none"
       d="m 494.7927,728.29575 c 0,-2.90098 2.3517,-5.25266 5.25267,-5.25266 2.90095,0 5.25267,2.35168 5.25267,5.25266 0,2.90096 -2.3517,5.25265 -5.25267,5.25265 -2.90096,0 -5.25267,-2.35169 -5.25267,-5.25265 z"
       id="path3844" />
    <path
       inkscape:connector-curvature="0"
       style="fill:none;stroke:#0000ff;stroke-width:0.03543306;stroke-miterlimit:4;stroke-opacity:1;stroke-dasharray:none"
       d="m 494.7927,516.86116 c 0,-2.90096 2.3517,-5.25266 5.25267,-5.25266 2.90095,0 5.25267,2.3517 5.25267,5.25266 0,2.90099 -2.3517,5.25265 -5.25267,5.25265 -2.90096,0 -5.25267,-2.35166 -5.25267,-5.25265 z"
       id="path3836" />
    <g
       style="font-size:9.60000038px;font-style:normal;font-weight:normal;line-height:125%;letter-spacing:0px;word-spacing:0px;fill:none;stroke:#00ff00;stroke-width:0.02834645;stroke-miterlimit:4;stroke-opacity:1;font-family:Times New Roman;-inkscape-font-specification:Times New Roman"
       id="text3814"
       transform="matrix(1.25,0,0,1.25,193.1875,211.14033)">
      <path
         d="m 105.99061,208.39968 0,1.4625 -0.15469,0 c -0.11875,-0.45937 -0.27109,-0.77187 -0.45703,-0.9375 -0.18594,-0.16562 -0.42266,-0.24843 -0.71015,-0.24844 -0.21876,1e-5 -0.39532,0.0578 -0.52969,0.17344 -0.13438,0.11563 -0.20156,0.24375 -0.20156,0.38437 0,0.17501 0.05,0.32501 0.15,0.45 0.0969,0.12813 0.29374,0.26407 0.59062,0.40782 l 0.68438,0.33281 c 0.63437,0.30938 0.95156,0.71719 0.95156,1.22344 0,0.39062 -0.14766,0.70547 -0.44297,0.94453 -0.29532,0.23906 -0.62578,0.35859 -0.99141,0.35859 -0.2625,0 -0.5625,-0.0469 -0.9,-0.14062 -0.10312,-0.0312 -0.1875,-0.0469 -0.25312,-0.0469 -0.0719,0 -0.12813,0.0406 -0.16875,0.12188 l -0.15469,0 0,-1.53282 0.15469,0 c 0.0875,0.43751 0.25469,0.76719 0.50156,0.98907 0.24687,0.22187 0.52344,0.33281 0.82969,0.33281 0.21562,0 0.3914,-0.0633 0.52734,-0.18984 0.13594,-0.12657 0.20391,-0.27891 0.20391,-0.45704 0,-0.21562 -0.0758,-0.39687 -0.22734,-0.54375 -0.15157,-0.14687 -0.45391,-0.33281 -0.90704,-0.55781 -0.45312,-0.225 -0.75,-0.42812 -0.89062,-0.60937 -0.14063,-0.17813 -0.21094,-0.40313 -0.21094,-0.675 0,-0.35312 0.12109,-0.64844 0.36328,-0.88594 0.24219,-0.2375 0.55547,-0.35625 0.93985,-0.35625 0.16874,0 0.37343,0.0359 0.61406,0.10781 0.15937,0.0469 0.26562,0.0703 0.31875,0.0703 0.05,1e-5 0.0891,-0.0109 0.11719,-0.0328 0.0281,-0.0219 0.0609,-0.0703 0.0984,-0.14531 z"
         id="path3817"
         inkscape:connector-curvature="0" />
      <path
         d="m 106.7078,208.52624 1.8,0 0,0.17344 c -0.16563,0.0125 -0.27422,0.0422 -0.32578,0.0891 -0.0516,0.0469 -0.0773,0.11407 -0.0773,0.20156 0,0.0969 0.0266,0.21407 0.0797,0.35157 l 0.91875,2.47031 0.92344,-2.01094 -0.24375,-0.63281 c -0.075,-0.1875 -0.17344,-0.31718 -0.29531,-0.38906 -0.0688,-0.0437 -0.19688,-0.0703 -0.38438,-0.0797 l 0,-0.17344 2.04375,0 0,0.17344 c -0.225,0.009 -0.38438,0.05 -0.47812,0.12187 -0.0625,0.05 -0.0938,0.1297 -0.0937,0.23907 -1e-5,0.0625 0.0125,0.12656 0.0375,0.19218 l 0.975,2.46563 0.90468,-2.37656 c 0.0625,-0.16875 0.0937,-0.30312 0.0937,-0.40313 0,-0.0594 -0.0305,-0.11249 -0.0914,-0.15937 -0.0609,-0.0469 -0.18048,-0.0734 -0.3586,-0.0797 l 0,-0.17344 1.35469,0 0,0.17344 c -0.27188,0.0406 -0.47188,0.225 -0.6,0.55312 l -1.43437,3.69844 -0.19219,0 -1.07344,-2.74219 -1.25156,2.74219 -0.17344,0 -1.37812,-3.60937 c -0.0906,-0.22812 -0.17969,-0.38203 -0.26719,-0.46172 -0.0875,-0.0797 -0.225,-0.13984 -0.4125,-0.18047 z"
         id="path3819"
         inkscape:connector-curvature="0" />
      <path
         d="m 114.97655,206.15437 c 0.13125,0 0.24297,0.0461 0.33516,0.13828 0.0922,0.0922 0.13828,0.20391 0.13828,0.33515 0,0.13126 -0.0461,0.24376 -0.13828,0.3375 -0.0922,0.0938 -0.20391,0.14064 -0.33516,0.14063 -0.13125,1e-5 -0.24375,-0.0469 -0.3375,-0.14063 -0.0937,-0.0937 -0.14063,-0.20624 -0.14063,-0.3375 0,-0.13124 0.0461,-0.24296 0.13829,-0.33515 0.0922,-0.0922 0.20546,-0.13828 0.33984,-0.13828 z m 0.38906,2.24531 0,3.45 c 0,0.26875 0.0195,0.44766 0.0586,0.53672 0.0391,0.0891 0.0969,0.15547 0.17343,0.19922 0.0766,0.0437 0.21641,0.0656 0.41953,0.0656 l 0,0.16875 -2.08593,0 0,-0.16875 c 0.20937,0 0.35,-0.0203 0.42187,-0.0609 0.0719,-0.0406 0.12891,-0.10781 0.1711,-0.20156 0.0422,-0.0937 0.0633,-0.27343 0.0633,-0.53906 l 0,-1.65469 c 0,-0.46562 -0.0141,-0.76718 -0.0422,-0.90469 -0.0219,-0.1 -0.0562,-0.16952 -0.10313,-0.20859 -0.0469,-0.0391 -0.11093,-0.0586 -0.19218,-0.0586 -0.0875,0 -0.19375,0.0234 -0.31875,0.0703 l -0.0656,-0.16875 1.29375,-0.525 z"
         id="path3821"
         inkscape:connector-curvature="0" />
      <path
         d="m 117.79374,207.1153 0,1.41094 1.00312,0 0,0.32813 -1.00312,0 0,2.78437 c 0,0.27813 0.0398,0.46563 0.11953,0.5625 0.0797,0.0969 0.18203,0.14532 0.30703,0.14531 0.10312,1e-5 0.20312,-0.032 0.3,-0.0961 0.0969,-0.0641 0.17187,-0.15859 0.225,-0.28359 l 0.18281,0 c -0.10938,0.30625 -0.26406,0.53672 -0.46406,0.6914 -0.2,0.15469 -0.40625,0.23203 -0.61875,0.23203 -0.14375,0 -0.28438,-0.0398 -0.42188,-0.11953 -0.1375,-0.0797 -0.23906,-0.19375 -0.30468,-0.34218 -0.0656,-0.14844 -0.0984,-0.37735 -0.0984,-0.68672 l 0,-2.8875 -0.67969,0 0,-0.15469 c 0.17188,-0.0687 0.34766,-0.18515 0.52735,-0.34922 0.17968,-0.16406 0.33984,-0.35859 0.48046,-0.58359 0.0719,-0.11875 0.17188,-0.33594 0.3,-0.65157 z"
         id="path3823"
         inkscape:connector-curvature="0" />
      <path
         d="m 122.85624,211.18874 c -0.11563,0.56563 -0.34219,1.00078 -0.67969,1.30547 -0.3375,0.30469 -0.71094,0.45703 -1.12031,0.45703 -0.4875,0 -0.9125,-0.20469 -1.275,-0.61406 -0.3625,-0.40937 -0.54375,-0.9625 -0.54375,-1.65938 0,-0.67499 0.20078,-1.22343 0.60234,-1.64531 0.40156,-0.42187 0.88359,-0.63281 1.44609,-0.63281 0.42188,0 0.76875,0.11172 1.04063,0.33516 0.27187,0.22344 0.40781,0.45547 0.40781,0.69609 0,0.11875 -0.0383,0.21485 -0.11484,0.28828 -0.0766,0.0734 -0.1836,0.11016 -0.3211,0.11016 -0.18437,0 -0.32344,-0.0594 -0.41718,-0.17813 -0.0531,-0.0656 -0.0883,-0.19062 -0.10547,-0.375 -0.0172,-0.18437 -0.0805,-0.32499 -0.18985,-0.42187 -0.10937,-0.0937 -0.26094,-0.14062 -0.45468,-0.14063 -0.3125,1e-5 -0.56407,0.11563 -0.75469,0.34688 -0.25313,0.30625 -0.37969,0.71094 -0.37969,1.21406 0,0.5125 0.12578,0.96484 0.37735,1.35703 0.25156,0.39219 0.5914,0.58828 1.01953,0.58828 0.30624,0 0.58124,-0.10468 0.825,-0.31406 0.17187,-0.14375 0.33906,-0.40469 0.50156,-0.78281 z"
         id="path3825"
         inkscape:connector-curvature="0" />
      <path
         d="m 124.72655,206.15437 0,3.14062 c 0.34687,-0.38124 0.62187,-0.62578 0.825,-0.73359 0.20312,-0.10781 0.40625,-0.16172 0.60938,-0.16172 0.24374,0 0.45312,0.0672 0.62812,0.20156 0.175,0.13438 0.30468,0.34532 0.38906,0.63281 0.0594,0.20001 0.0891,0.56563 0.0891,1.09688 l 0,1.51875 c -1e-5,0.27188 0.0219,0.45781 0.0656,0.55781 0.0312,0.075 0.0844,0.13438 0.15938,0.17813 0.075,0.0437 0.21249,0.0656 0.4125,0.0656 l 0,0.16875 -2.10938,0 0,-0.16875 0.0984,0 c 0.2,0 0.33906,-0.0305 0.41719,-0.0914 0.0781,-0.0609 0.13281,-0.15079 0.16406,-0.26954 0.009,-0.05 0.0141,-0.19687 0.0141,-0.44062 l 0,-1.51875 c 0,-0.46875 -0.0242,-0.77656 -0.0727,-0.92344 -0.0484,-0.14687 -0.12578,-0.25703 -0.23203,-0.33047 -0.10625,-0.0734 -0.23437,-0.11015 -0.38437,-0.11015 -0.15313,0 -0.3125,0.0406 -0.47813,0.12187 -0.16562,0.0813 -0.36406,0.24532 -0.59531,0.49219 l 0,2.26875 c 0,0.29375 0.0164,0.47656 0.0492,0.54844 0.0328,0.0719 0.0937,0.13203 0.18281,0.18047 0.0891,0.0484 0.24297,0.0727 0.46172,0.0727 l 0,0.16875 -2.12812,0 0,-0.16875 c 0.19062,0 0.34062,-0.0297 0.45,-0.0891 0.0625,-0.0312 0.1125,-0.0906 0.15,-0.17813 0.0375,-0.0875 0.0562,-0.26562 0.0563,-0.53437 l 0,-3.88594 c -1e-5,-0.49062 -0.0117,-0.79218 -0.0352,-0.90469 -0.0234,-0.11249 -0.0594,-0.18905 -0.10781,-0.22968 -0.0484,-0.0406 -0.11328,-0.0609 -0.19453,-0.0609 -0.0656,1e-5 -0.17188,0.025 -0.31875,0.075 l -0.0656,-0.16406 1.28438,-0.525 z"
         id="path3827"
         inkscape:connector-curvature="0" />
      <path
         d="m 129.54061,209.31374 c 0.3125,-0.31249 0.49688,-0.49218 0.55313,-0.53906 0.14062,-0.11875 0.29218,-0.21093 0.45469,-0.27656 0.16249,-0.0656 0.32343,-0.0984 0.48281,-0.0984 0.26874,0 0.49999,0.0781 0.69375,0.23437 0.19374,0.15626 0.32343,0.38282 0.38906,0.67969 0.32187,-0.37499 0.59375,-0.62109 0.81563,-0.73828 0.22186,-0.11718 0.44999,-0.17578 0.68437,-0.17578 0.22812,0 0.43046,0.0586 0.60703,0.17578 0.17656,0.11719 0.3164,0.3086 0.41953,0.57422 0.0687,0.18125 0.10312,0.46563 0.10313,0.85312 l 0,1.84688 c -1e-5,0.26875 0.0203,0.45313 0.0609,0.55312 0.0312,0.0687 0.0891,0.12735 0.17343,0.17579 0.0844,0.0484 0.22187,0.0727 0.4125,0.0727 l 0,0.16875 -2.11875,0 0,-0.16875 0.0891,0 c 0.18436,0 0.32811,-0.0359 0.43125,-0.10781 0.0719,-0.05 0.12343,-0.12969 0.15468,-0.23906 0.0125,-0.0531 0.0188,-0.20469 0.0188,-0.45469 l 0,-1.84688 c 0,-0.34999 -0.0422,-0.59687 -0.12656,-0.74062 -0.12188,-0.2 -0.31719,-0.3 -0.58594,-0.3 -0.16563,0 -0.33203,0.0414 -0.49922,0.12422 -0.16719,0.0828 -0.36953,0.23672 -0.60703,0.46172 l -0.009,0.0516 0.009,0.20156 0,2.04844 c 0,0.29375 0.0164,0.47656 0.0492,0.54844 0.0328,0.0719 0.0945,0.13203 0.18516,0.18047 0.0906,0.0484 0.24531,0.0727 0.46406,0.0727 l 0,0.16875 -2.17031,0 0,-0.16875 c 0.23749,0 0.40078,-0.0281 0.48984,-0.0844 0.0891,-0.0563 0.15078,-0.14063 0.18516,-0.25313 0.0156,-0.0531 0.0234,-0.20781 0.0234,-0.46406 l 0,-1.84688 c -1e-5,-0.34999 -0.0516,-0.60155 -0.15469,-0.75468 -0.13751,-0.2 -0.32969,-0.3 -0.57656,-0.3 -0.16876,0 -0.33594,0.0453 -0.50157,0.13593 -0.25937,0.13751 -0.45937,0.2922 -0.6,0.46407 l 0,2.30156 c 0,0.28125 0.0195,0.46406 0.0586,0.54844 0.0391,0.0844 0.0969,0.14765 0.17343,0.18984 0.0766,0.0422 0.23203,0.0633 0.46641,0.0633 l 0,0.16875 -2.12344,0 0,-0.16875 c 0.19688,0 0.33438,-0.0211 0.4125,-0.0633 0.0781,-0.0422 0.1375,-0.10937 0.17813,-0.20156 0.0406,-0.0922 0.0609,-0.27109 0.0609,-0.53672 l 0,-1.64063 c 0,-0.47187 -0.0141,-0.77655 -0.0422,-0.91406 -0.0219,-0.10312 -0.0562,-0.17421 -0.10313,-0.21328 -0.0469,-0.0391 -0.11094,-0.0586 -0.19219,-0.0586 -0.0875,0 -0.19218,0.0234 -0.31406,0.0703 l -0.0703,-0.16875 1.29375,-0.525 0.20156,0 z"
         id="path3829"
         inkscape:connector-curvature="0" />
      <path
         d="m 137.82811,208.39968 c 0.65,0 1.17187,0.24688 1.56563,0.74062 0.33437,0.42188 0.50156,0.90626 0.50156,1.45313 0,0.38438 -0.0922,0.77344 -0.27656,1.16719 -0.18438,0.39375 -0.43829,0.69062 -0.76172,0.89062 -0.32344,0.2 -0.6836,0.3 -1.08047,0.3 -0.64688,0 -1.16094,-0.25781 -1.54219,-0.77344 -0.32187,-0.43437 -0.48281,-0.92187 -0.48281,-1.4625 0,-0.39374 0.0977,-0.78515 0.29297,-1.17421 0.19531,-0.38906 0.45234,-0.67656 0.77109,-0.8625 0.31875,-0.18594 0.65625,-0.27891 1.0125,-0.27891 z m -0.14531,0.30469 c -0.16563,0 -0.33203,0.0492 -0.49922,0.14765 -0.16719,0.0984 -0.30234,0.2711 -0.40547,0.51797 -0.10312,0.24688 -0.15469,0.56407 -0.15469,0.95156 0,0.62501 0.12422,1.16407 0.37266,1.61719 0.24844,0.45313 0.57578,0.67969 0.98203,0.67969 0.30312,0 0.55312,-0.125 0.75,-0.375 0.19687,-0.25 0.29531,-0.67969 0.29531,-1.28906 0,-0.7625 -0.16406,-1.3625 -0.49218,-1.8 -0.22188,-0.3 -0.50469,-0.45 -0.84844,-0.45 z"
         id="path3831"
         inkscape:connector-curvature="0" />
      <path
         d="m 143.56092,212.33718 c -0.20937,0.21875 -0.41406,0.37578 -0.61406,0.47109 -0.2,0.0953 -0.41563,0.14297 -0.64687,0.14297 -0.46876,0 -0.87813,-0.19609 -1.22813,-0.58828 -0.35,-0.39219 -0.525,-0.89609 -0.525,-1.51172 0,-0.61562 0.19375,-1.1789 0.58125,-1.68984 0.3875,-0.51094 0.88594,-0.7664 1.49531,-0.76641 0.37813,1e-5 0.69063,0.12032 0.9375,0.36094 l 0,-0.79219 c 0,-0.49062 -0.0117,-0.79218 -0.0352,-0.90469 -0.0234,-0.11249 -0.0602,-0.18905 -0.11016,-0.22968 -0.05,-0.0406 -0.1125,-0.0609 -0.1875,-0.0609 -0.0812,1e-5 -0.18906,0.025 -0.32344,0.075 l -0.0609,-0.16406 1.27968,-0.525 0.21094,0 0,4.96406 c 0,0.50313 0.0117,0.81016 0.0352,0.92109 0.0234,0.11094 0.0609,0.18829 0.1125,0.23203 0.0516,0.0438 0.11171,0.0656 0.18047,0.0656 0.0844,0 0.19687,-0.0266 0.3375,-0.0797 l 0.0516,0.16406 -1.275,0.52969 -0.21563,0 z m 0,-0.32813 0,-2.2125 c -0.0188,-0.21249 -0.075,-0.40624 -0.16875,-0.58125 -0.0937,-0.17499 -0.21797,-0.30702 -0.37265,-0.39609 -0.15469,-0.0891 -0.30547,-0.13359 -0.45235,-0.13359 -0.275,0 -0.52031,0.12344 -0.73593,0.37031 -0.28438,0.325 -0.42657,0.8 -0.42657,1.425 0,0.63125 0.1375,1.11484 0.4125,1.45078 0.275,0.33594 0.58125,0.50391 0.91875,0.50391 0.28438,0 0.55938,-0.14219 0.825,-0.42657 z"
         id="path3833"
         inkscape:connector-curvature="0" />
      <path
         d="m 146.04999,210.14343 c -0.003,0.6375 0.15156,1.1375 0.46406,1.5 0.3125,0.3625 0.67969,0.54375 1.10156,0.54375 0.28125,0 0.52578,-0.0773 0.7336,-0.23203 0.20781,-0.15469 0.38203,-0.41953 0.52265,-0.79453 l 0.14532,0.0937 c -0.0656,0.42812 -0.25626,0.81797 -0.57188,1.16953 -0.31563,0.35156 -0.71094,0.52734 -1.18594,0.52734 -0.51562,0 -0.95703,-0.20078 -1.32421,-0.60234 -0.36719,-0.40156 -0.55079,-0.94141 -0.55079,-1.61953 0,-0.73438 0.18829,-1.30703 0.56485,-1.71797 0.37656,-0.41094 0.84922,-0.6164 1.41797,-0.61641 0.48124,1e-5 0.87656,0.1586 1.18593,0.47578 0.30938,0.31719 0.46406,0.74141 0.46407,1.27266 z m 0,-0.27188 1.9875,0 c -0.0156,-0.27499 -0.0484,-0.46874 -0.0984,-0.58125 -0.0781,-0.17499 -0.19453,-0.31249 -0.34922,-0.4125 -0.15469,-0.1 -0.31641,-0.14999 -0.48515,-0.15 -0.25938,1e-5 -0.49141,0.10079 -0.6961,0.30235 -0.20469,0.20156 -0.32422,0.48203 -0.35859,0.8414 z"
         id="path3835"
         inkscape:connector-curvature="0" />
      <path
         d="m 152.61718,212.33718 c -0.20938,0.21875 -0.41407,0.37578 -0.61407,0.47109 -0.2,0.0953 -0.41562,0.14297 -0.64687,0.14297 -0.46875,0 -0.87813,-0.19609 -1.22813,-0.58828 -0.35,-0.39219 -0.525,-0.89609 -0.525,-1.51172 0,-0.61562 0.19375,-1.1789 0.58125,-1.68984 0.3875,-0.51094 0.88594,-0.7664 1.49532,-0.76641 0.37812,1e-5 0.69062,0.12032 0.9375,0.36094 l 0,-0.79219 c -1e-5,-0.49062 -0.0117,-0.79218 -0.0352,-0.90469 -0.0234,-0.11249 -0.0602,-0.18905 -0.11016,-0.22968 -0.05,-0.0406 -0.1125,-0.0609 -0.1875,-0.0609 -0.0812,1e-5 -0.18906,0.025 -0.32343,0.075 l -0.0609,-0.16406 1.27969,-0.525 0.21093,0 0,4.96406 c 0,0.50313 0.0117,0.81016 0.0352,0.92109 0.0234,0.11094 0.0609,0.18829 0.1125,0.23203 0.0516,0.0438 0.11171,0.0656 0.18047,0.0656 0.0844,0 0.19687,-0.0266 0.3375,-0.0797 l 0.0516,0.16406 -1.275,0.52969 -0.21562,0 z m 0,-0.32813 0,-2.2125 c -0.0188,-0.21249 -0.075,-0.40624 -0.16875,-0.58125 -0.0938,-0.17499 -0.21798,-0.30702 -0.37266,-0.39609 -0.15469,-0.0891 -0.30547,-0.13359 -0.45234,-0.13359 -0.27501,0 -0.52032,0.12344 -0.73594,0.37031 -0.28438,0.325 -0.42657,0.8 -0.42656,1.425 -1e-5,0.63125 0.13749,1.11484 0.4125,1.45078 0.27499,0.33594 0.58124,0.50391 0.91875,0.50391 0.28437,0 0.55937,-0.14219 0.825,-0.42657 z"
         id="path3837"
         inkscape:connector-curvature="0" />
      <path
         d="m 155.10624,210.14343 c -0.003,0.6375 0.15156,1.1375 0.46406,1.5 0.3125,0.3625 0.67968,0.54375 1.10156,0.54375 0.28125,0 0.52578,-0.0773 0.7336,-0.23203 0.2078,-0.15469 0.38202,-0.41953 0.52265,-0.79453 l 0.14531,0.0937 c -0.0656,0.42812 -0.25625,0.81797 -0.57187,1.16953 -0.31563,0.35156 -0.71094,0.52734 -1.18594,0.52734 -0.51562,0 -0.95703,-0.20078 -1.32422,-0.60234 -0.36718,-0.40156 -0.55078,-0.94141 -0.55078,-1.61953 0,-0.73438 0.18828,-1.30703 0.56485,-1.71797 0.37656,-0.41094 0.84921,-0.6164 1.41796,-0.61641 0.48125,1e-5 0.87656,0.1586 1.18594,0.47578 0.30937,0.31719 0.46406,0.74141 0.46406,1.27266 z m 0,-0.27188 1.9875,0 c -0.0156,-0.27499 -0.0484,-0.46874 -0.0984,-0.58125 -0.0781,-0.17499 -0.19453,-0.31249 -0.34922,-0.4125 -0.15469,-0.1 -0.31641,-0.14999 -0.48516,-0.15 -0.25937,1e-5 -0.4914,0.10079 -0.69609,0.30235 -0.20469,0.20156 -0.32422,0.48203 -0.35859,0.8414 z"
         id="path3839"
         inkscape:connector-curvature="0" />
      <path
         d="m 161.41561,208.39968 0,1.4625 -0.15468,0 c -0.11876,-0.45937 -0.2711,-0.77187 -0.45703,-0.9375 -0.18594,-0.16562 -0.42266,-0.24843 -0.71016,-0.24844 -0.21875,1e-5 -0.39531,0.0578 -0.52969,0.17344 -0.13437,0.11563 -0.20156,0.24375 -0.20156,0.38437 0,0.17501 0.05,0.32501 0.15,0.45 0.0969,0.12813 0.29375,0.26407 0.59062,0.40782 l 0.68438,0.33281 c 0.63437,0.30938 0.95156,0.71719 0.95156,1.22344 0,0.39062 -0.14766,0.70547 -0.44297,0.94453 -0.29531,0.23906 -0.62578,0.35859 -0.9914,0.35859 -0.2625,0 -0.5625,-0.0469 -0.9,-0.14062 -0.10313,-0.0312 -0.1875,-0.0469 -0.25313,-0.0469 -0.0719,0 -0.12812,0.0406 -0.16875,0.12188 l -0.15469,0 0,-1.53282 0.15469,0 c 0.0875,0.43751 0.25469,0.76719 0.50156,0.98907 0.24688,0.22187 0.52344,0.33281 0.82969,0.33281 0.21562,0 0.39141,-0.0633 0.52735,-0.18984 0.13593,-0.12657 0.2039,-0.27891 0.2039,-0.45704 0,-0.21562 -0.0758,-0.39687 -0.22734,-0.54375 -0.15157,-0.14687 -0.45391,-0.33281 -0.90703,-0.55781 -0.45313,-0.225 -0.75,-0.42812 -0.89063,-0.60937 -0.14062,-0.17813 -0.21094,-0.40313 -0.21094,-0.675 0,-0.35312 0.1211,-0.64844 0.36329,-0.88594 0.24218,-0.2375 0.55546,-0.35625 0.93984,-0.35625 0.16875,0 0.37343,0.0359 0.61406,0.10781 0.15937,0.0469 0.26562,0.0703 0.31875,0.0703 0.05,1e-5 0.0891,-0.0109 0.11719,-0.0328 0.0281,-0.0219 0.0609,-0.0703 0.0984,-0.14531 z"
         id="path3841"
         inkscape:connector-curvature="0" />
      <path
         d="m 163.46405,206.15437 c 0.13125,0 0.24297,0.0461 0.33516,0.13828 0.0922,0.0922 0.13828,0.20391 0.13828,0.33515 0,0.13126 -0.0461,0.24376 -0.13828,0.3375 -0.0922,0.0938 -0.20391,0.14064 -0.33516,0.14063 -0.13125,1e-5 -0.24375,-0.0469 -0.3375,-0.14063 -0.0937,-0.0937 -0.14062,-0.20624 -0.14062,-0.3375 0,-0.13124 0.0461,-0.24296 0.13828,-0.33515 0.0922,-0.0922 0.20547,-0.13828 0.33984,-0.13828 z m 0.38907,2.24531 0,3.45 c -1e-5,0.26875 0.0195,0.44766 0.0586,0.53672 0.0391,0.0891 0.0969,0.15547 0.17344,0.19922 0.0766,0.0437 0.2164,0.0656 0.41953,0.0656 l 0,0.16875 -2.08594,0 0,-0.16875 c 0.20937,0 0.35,-0.0203 0.42188,-0.0609 0.0719,-0.0406 0.1289,-0.10781 0.17109,-0.20156 0.0422,-0.0937 0.0633,-0.27343 0.0633,-0.53906 l 0,-1.65469 c 0,-0.46562 -0.0141,-0.76718 -0.0422,-0.90469 -0.0219,-0.1 -0.0563,-0.16952 -0.10312,-0.20859 -0.0469,-0.0391 -0.11094,-0.0586 -0.19219,-0.0586 -0.0875,0 -0.19375,0.0234 -0.31875,0.0703 l -0.0656,-0.16875 1.29375,-0.525 z"
         id="path3843"
         inkscape:connector-curvature="0" />
      <path
         d="m 166.1828,211.25437 c -0.2625,-0.12813 -0.46406,-0.30703 -0.60469,-0.53672 -0.14062,-0.22969 -0.21093,-0.48359 -0.21093,-0.76172 0,-0.425 0.16015,-0.79062 0.48046,-1.09688 0.32032,-0.30624 0.73047,-0.45937 1.23047,-0.45937 0.40938,0 0.76406,0.1 1.06407,0.3 l 0.90937,0 c 0.13437,0 0.2125,0.004 0.23438,0.0117 0.0219,0.008 0.0375,0.0211 0.0469,0.0398 0.0188,0.0281 0.0281,0.0781 0.0281,0.15 -1e-5,0.0813 -0.008,0.13751 -0.0234,0.16875 -0.009,0.0156 -0.0258,0.0281 -0.0492,0.0375 -0.0234,0.009 -0.10235,0.0141 -0.23672,0.0141 l -0.55781,0 c 0.17499,0.22501 0.26249,0.51251 0.2625,0.8625 -1e-5,0.40001 -0.15313,0.74219 -0.45938,1.02657 -0.30625,0.28437 -0.71719,0.42656 -1.23281,0.42656 -0.2125,0 -0.42969,-0.0312 -0.65156,-0.0937 -0.1375,0.11875 -0.23047,0.22266 -0.27891,0.31172 -0.0484,0.0891 -0.0727,0.16484 -0.0726,0.22734 -1e-5,0.0531 0.0258,0.10469 0.0773,0.15469 0.0516,0.05 0.15234,0.0859 0.30234,0.10781 0.0875,0.0125 0.30625,0.0234 0.65625,0.0328 0.64375,0.0156 1.06094,0.0375 1.25157,0.0656 0.29062,0.0406 0.52265,0.14844 0.69609,0.32344 0.17343,0.175 0.26015,0.39062 0.26016,0.64687 -1e-5,0.35313 -0.16563,0.68438 -0.49688,0.99375 -0.4875,0.45625 -1.12344,0.68438 -1.90781,0.68438 -0.60313,0 -1.1125,-0.13594 -1.52813,-0.40782 -0.23437,-0.15625 -0.35156,-0.31875 -0.35156,-0.4875 0,-0.075 0.0172,-0.15 0.0516,-0.225 0.0531,-0.11562 0.1625,-0.27656 0.32813,-0.48281 0.0219,-0.0281 0.18125,-0.19687 0.47812,-0.50625 -0.1625,-0.0969 -0.27734,-0.18359 -0.34453,-0.26015 -0.0672,-0.0766 -0.10078,-0.16328 -0.10078,-0.26016 0,-0.10937 0.0445,-0.2375 0.13359,-0.38438 0.0891,-0.14687 0.29453,-0.35468 0.61641,-0.62343 z m 0.81563,-2.62969 c -0.23126,0 -0.42501,0.0922 -0.58125,0.27656 -0.15626,0.18438 -0.23438,0.46719 -0.23438,0.84844 0,0.49375 0.10625,0.87656 0.31875,1.14844 0.1625,0.20625 0.36875,0.30937 0.61875,0.30937 0.2375,0 0.43281,-0.0891 0.58594,-0.26719 0.15312,-0.17812 0.22968,-0.45781 0.22969,-0.83906 -1e-5,-0.49687 -0.10782,-0.88593 -0.32344,-1.16719 -0.15938,-0.20624 -0.36407,-0.30937 -0.61406,-0.30937 z m -0.8625,4.19531 c -0.14688,0.15938 -0.25782,0.30781 -0.33282,0.44531 -0.075,0.1375 -0.1125,0.26407 -0.1125,0.37969 0,0.15 0.0906,0.28125 0.27188,0.39375 0.3125,0.19375 0.76406,0.29063 1.35469,0.29063 0.56249,0 0.97734,-0.0992 1.24453,-0.29766 0.26718,-0.19844 0.40077,-0.41016 0.40078,-0.63516 -1e-5,-0.1625 -0.0797,-0.27812 -0.23906,-0.34687 -0.16251,-0.0687 -0.48438,-0.10938 -0.96563,-0.12188 -0.70313,-0.0187 -1.24375,-0.0547 -1.62187,-0.10781 z"
         id="path3845"
         inkscape:connector-curvature="0" />
      <path
         d="m 171.08593,209.30905 c 0.50312,-0.60624 0.98281,-0.90937 1.43906,-0.90937 0.23437,0 0.43593,0.0586 0.60469,0.17578 0.16874,0.11719 0.30312,0.31016 0.40312,0.57891 0.0687,0.1875 0.10312,0.475 0.10313,0.8625 l 0,1.83281 c -1e-5,0.27188 0.0219,0.45625 0.0656,0.55312 0.0344,0.0781 0.0898,0.13907 0.16641,0.18282 0.0765,0.0437 0.21796,0.0656 0.42422,0.0656 l 0,0.16875 -2.12344,0 0,-0.16875 0.0891,0 c 0.2,0 0.33984,-0.0305 0.41953,-0.0914 0.0797,-0.0609 0.13515,-0.15079 0.16641,-0.26954 0.0125,-0.0469 0.0187,-0.19374 0.0188,-0.44062 l 0,-1.75781 c -1e-5,-0.39062 -0.0508,-0.67422 -0.15235,-0.85078 -0.10156,-0.17656 -0.27265,-0.26484 -0.51328,-0.26485 -0.37187,10e-6 -0.74219,0.20313 -1.11093,0.60938 l 0,2.26406 c -1e-5,0.29063 0.0172,0.47031 0.0516,0.53906 0.0437,0.0906 0.1039,0.15703 0.18047,0.19922 0.0766,0.0422 0.23203,0.0633 0.4664,0.0633 l 0,0.16875 -2.12343,0 0,-0.16875 0.0937,0 c 0.21874,0 0.3664,-0.0555 0.44296,-0.1664 0.0766,-0.11094 0.11485,-0.32266 0.11485,-0.63516 l 0,-1.59375 c 0,-0.51562 -0.0117,-0.82968 -0.0352,-0.94219 -0.0234,-0.11249 -0.0594,-0.18906 -0.10781,-0.22969 -0.0484,-0.0406 -0.11328,-0.0609 -0.19453,-0.0609 -0.0875,0 -0.19219,0.0234 -0.31406,0.0703 l -0.0703,-0.16875 1.29375,-0.525 0.20157,0 z"
         id="path3847"
         inkscape:connector-curvature="0" />
      <path
         d="m 175.53437,211.91062 c 0.14687,0 0.27031,0.0508 0.37031,0.15234 0.1,0.10156 0.15,0.22422 0.15,0.36797 0,0.14375 -0.0508,0.26641 -0.15235,0.36797 -0.10156,0.10156 -0.22422,0.15234 -0.36796,0.15234 -0.14376,0 -0.26641,-0.0508 -0.36797,-0.15234 -0.10157,-0.10156 -0.15235,-0.22422 -0.15235,-0.36797 0,-0.14687 0.0508,-0.27031 0.15235,-0.37031 0.10156,-0.1 0.22421,-0.15 0.36797,-0.15 z"
         id="path3849"
         inkscape:connector-curvature="0" />
      <path
         d="m 180.68124,211.18874 c -0.11563,0.56563 -0.34219,1.00078 -0.67968,1.30547 -0.33751,0.30469 -0.71095,0.45703 -1.12032,0.45703 -0.4875,0 -0.9125,-0.20469 -1.275,-0.61406 -0.3625,-0.40937 -0.54375,-0.9625 -0.54375,-1.65938 0,-0.67499 0.20078,-1.22343 0.60235,-1.64531 0.40156,-0.42187 0.88359,-0.63281 1.44609,-0.63281 0.42187,0 0.76875,0.11172 1.04063,0.33516 0.27187,0.22344 0.4078,0.45547 0.40781,0.69609 -1e-5,0.11875 -0.0383,0.21485 -0.11485,0.28828 -0.0766,0.0734 -0.18359,0.11016 -0.32109,0.11016 -0.18438,0 -0.32344,-0.0594 -0.41719,-0.17813 -0.0531,-0.0656 -0.0883,-0.19062 -0.10547,-0.375 -0.0172,-0.18437 -0.0805,-0.32499 -0.18984,-0.42187 -0.10938,-0.0937 -0.26094,-0.14062 -0.45469,-0.14063 -0.3125,1e-5 -0.56406,0.11563 -0.75469,0.34688 -0.25312,0.30625 -0.37968,0.71094 -0.37968,1.21406 0,0.5125 0.12578,0.96484 0.37734,1.35703 0.25156,0.39219 0.59141,0.58828 1.01953,0.58828 0.30625,0 0.58125,-0.10468 0.825,-0.31406 0.17187,-0.14375 0.33906,-0.40469 0.50157,-0.78281 z"
         id="path3851"
         inkscape:connector-curvature="0" />
      <path
         d="m 183.39062,208.39968 c 0.64999,0 1.17187,0.24688 1.56562,0.74062 0.33437,0.42188 0.50156,0.90626 0.50156,1.45313 0,0.38438 -0.0922,0.77344 -0.27656,1.16719 -0.18438,0.39375 -0.43828,0.69062 -0.76172,0.89062 -0.32344,0.2 -0.68359,0.3 -1.08047,0.3 -0.64687,0 -1.16094,-0.25781 -1.54218,-0.77344 -0.32188,-0.43437 -0.48282,-0.92187 -0.48282,-1.4625 0,-0.39374 0.0977,-0.78515 0.29297,-1.17421 0.19531,-0.38906 0.45234,-0.67656 0.7711,-0.8625 0.31874,-0.18594 0.65624,-0.27891 1.0125,-0.27891 z m -0.14532,0.30469 c -0.16562,0 -0.33203,0.0492 -0.49922,0.14765 -0.16718,0.0984 -0.30234,0.2711 -0.40546,0.51797 -0.10313,0.24688 -0.15469,0.56407 -0.15469,0.95156 0,0.62501 0.12422,1.16407 0.37265,1.61719 0.24844,0.45313 0.57578,0.67969 0.98204,0.67969 0.30312,0 0.55312,-0.125 0.75,-0.375 0.19687,-0.25 0.2953,-0.67969 0.29531,-1.28906 -1e-5,-0.7625 -0.16407,-1.3625 -0.49219,-1.8 -0.22188,-0.3 -0.50469,-0.45 -0.84844,-0.45 z"
         id="path3853"
         inkscape:connector-curvature="0" />
      <path
         d="m 187.36562,209.31374 c 0.3125,-0.31249 0.49687,-0.49218 0.55312,-0.53906 0.14063,-0.11875 0.29219,-0.21093 0.45469,-0.27656 0.1625,-0.0656 0.32344,-0.0984 0.48281,-0.0984 0.26875,0 0.5,0.0781 0.69375,0.23437 0.19375,0.15626 0.32344,0.38282 0.38907,0.67969 0.32187,-0.37499 0.59374,-0.62109 0.81562,-0.73828 0.22187,-0.11718 0.45,-0.17578 0.68438,-0.17578 0.22812,0 0.43046,0.0586 0.60703,0.17578 0.17655,0.11719 0.3164,0.3086 0.41953,0.57422 0.0687,0.18125 0.10312,0.46563 0.10312,0.85312 l 0,1.84688 c 0,0.26875 0.0203,0.45313 0.0609,0.55312 0.0312,0.0687 0.0891,0.12735 0.17344,0.17579 0.0844,0.0484 0.22187,0.0727 0.4125,0.0727 l 0,0.16875 -2.11875,0 0,-0.16875 0.0891,0 c 0.18437,0 0.32812,-0.0359 0.43125,-0.10781 0.0719,-0.05 0.12343,-0.12969 0.15469,-0.23906 0.0125,-0.0531 0.0187,-0.20469 0.0187,-0.45469 l 0,-1.84688 c -1e-5,-0.34999 -0.0422,-0.59687 -0.12656,-0.74062 -0.12188,-0.2 -0.3172,-0.3 -0.58594,-0.3 -0.16563,0 -0.33204,0.0414 -0.49922,0.12422 -0.16719,0.0828 -0.36954,0.23672 -0.60703,0.46172 l -0.009,0.0516 0.009,0.20156 0,2.04844 c -1e-5,0.29375 0.0164,0.47656 0.0492,0.54844 0.0328,0.0719 0.0945,0.13203 0.18515,0.18047 0.0906,0.0484 0.24531,0.0727 0.46407,0.0727 l 0,0.16875 -2.17032,0 0,-0.16875 c 0.2375,0 0.40078,-0.0281 0.48985,-0.0844 0.0891,-0.0563 0.15078,-0.14063 0.18515,-0.25313 0.0156,-0.0531 0.0234,-0.20781 0.0234,-0.46406 l 0,-1.84688 c 0,-0.34999 -0.0516,-0.60155 -0.15469,-0.75468 -0.1375,-0.2 -0.32969,-0.3 -0.57656,-0.3 -0.16875,0 -0.33594,0.0453 -0.50156,0.13593 -0.25938,0.13751 -0.45938,0.2922 -0.6,0.46407 l 0,2.30156 c 0,0.28125 0.0195,0.46406 0.0586,0.54844 0.0391,0.0844 0.0969,0.14765 0.17344,0.18984 0.0766,0.0422 0.23203,0.0633 0.46641,0.0633 l 0,0.16875 -2.12344,0 0,-0.16875 c 0.19687,0 0.33437,-0.0211 0.4125,-0.0633 0.0781,-0.0422 0.1375,-0.10937 0.17812,-0.20156 0.0406,-0.0922 0.0609,-0.27109 0.0609,-0.53672 l 0,-1.64063 c 0,-0.47187 -0.0141,-0.77655 -0.0422,-0.91406 -0.0219,-0.10312 -0.0563,-0.17421 -0.10312,-0.21328 -0.0469,-0.0391 -0.11094,-0.0586 -0.19219,-0.0586 -0.0875,0 -0.19219,0.0234 -0.31406,0.0703 l -0.0703,-0.16875 1.29375,-0.525 0.20156,0 z"
         id="path3855"
         inkscape:connector-curvature="0" />
    </g>
    <rect
       style="fill:none;stroke:#0000ff;stroke-width:0.03543308;stroke-miterlimit:4;stroke-opacity:1;stroke-dasharray:none"
       id="rect3850-1"
       width="265.38199"
       height="278.85779"
       x="245.8894"
       y="505.64893" />
    <path
       id="rect3850-7"
       style="fill:none;stroke:#0000ff;stroke-width:0.03543308;stroke-miterlimit:4;stroke-opacity:1"
       d="m 511.25346,251.64623 -265.38199,0 0,233.86316 265.38199,0 z m -3.73965,85.41607 c 0,2.90096 -2.3517,5.25266 -5.25266,5.25266 -2.90096,0 -5.25266,-2.3517 -5.25266,-5.25266 0,-2.90096 2.3517,-5.25266 5.25266,-5.25266 2.90096,0 5.25266,2.3517 5.25266,5.25266 z m 0,99 c 0,2.90096 -2.3517,5.25266 -5.25266,5.25266 -2.90096,0 -5.25266,-2.3517 -5.25266,-5.25266 0,-2.90096 2.3517,-5.25266 5.25266,-5.25266 2.90096,0 5.25266,2.3517 5.25266,5.25266 z m -184.50001,18 c 0,2.90096 -2.35168,5.25266 -5.25265,5.25266 -2.90096,0 -5.25266,-2.3517 -5.25266,-5.25266 0,-2.90096 2.3517,-5.25266 5.25266,-5.25266 2.90097,0 5.25265,2.3517 5.25265,5.25266 z m -71.15846,20.23191 c 0,2.90096 2.35171,5.25266 5.25266,5.25266 2.90096,0 5.25266,-2.3517 5.25266,-5.25266 0,-2.90096 -2.3517,-5.25266 -5.25266,-5.25266 -2.90095,0 -5.25266,2.3517 -5.25266,5.25266 z m 0,-211.43455 c 0,2.90096 2.35171,5.25266 5.25266,5.25266 2.90096,0 5.25266,-2.3517 5.25266,-5.25266 0,-2.90096 -2.3517,-5.25266 -5.25266,-5.25266 -2.90095,0 -5.25266,2.3517 -5.25266,5.25266 z m 245.15315,0 c 0,2.90096 2.3517,5.25266 5.25266,5.25266 2.90096,0 5.25266,-2.3517 5.25266,-5.25266 0,-2.90096 -2.3517,-5.25266 -5.25266,-5.25266 -2.90096,0 -5.25266,2.3517 -5.25266,5.25266 z m 0,211.43455 c 0,2.90096 2.3517,5.25266 5.25266,5.25266 2.90096,0 5.25266,-2.3517 5.25266,-5.25266 0,-2.90096 -2.3517,-5.25266 -5.25266,-5.25266 -2.90096,0 -5.25266,2.3517 -5.25266,5.25266 z"
       inkscape:connector-curvature="0" />
  </g>
</svg>
